<?xml version="1.0" encoding="utf-8" standalone="no"?>
<!DOCTYPE svg PUBLIC "-//W3C//DTD SVG 1.1//EN"
  "http://www.w3.org/Graphics/SVG/1.1/DTD/svg11.dtd">
<svg xmlns:xlink="http://www.w3.org/1999/xlink" width="807.087812pt" height="282.922188pt" viewBox="0 0 807.087812 282.922188" xmlns="http://www.w3.org/2000/svg" version="1.1">
 <metadata>
  <rdf:RDF xmlns:dc="http://purl.org/dc/elements/1.1/" xmlns:cc="http://creativecommons.org/ns#" xmlns:rdf="http://www.w3.org/1999/02/22-rdf-syntax-ns#">
   <cc:Work>
    <dc:type rdf:resource="http://purl.org/dc/dcmitype/StillImage"/>
    <dc:date>2023-11-19T19:17:55.933235</dc:date>
    <dc:format>image/svg+xml</dc:format>
    <dc:creator>
     <cc:Agent>
      <dc:title>Matplotlib v3.8.1, https://matplotlib.org/</dc:title>
     </cc:Agent>
    </dc:creator>
   </cc:Work>
  </rdf:RDF>
 </metadata>
 <defs>
  <style type="text/css">*{stroke-linejoin: round; stroke-linecap: butt}</style>
 </defs>
 <g id="figure_1">
  <g id="patch_1">
   <path d="M 0 282.922188 
L 807.087812 282.922188 
L 807.087812 -0 
L 0 -0 
z
" style="fill: #ffffff"/>
  </g>
  <g id="axes_1">
   <g id="patch_2">
    <path d="M 74.865313 234.72 
L 783.345312 234.72 
L 783.345312 7.2 
L 74.865313 7.2 
z
" style="fill: #ffffff"/>
   </g>
   <g id="matplotlib.axis_1">
    <g id="xtick_1">
     <g id="line2d_1">
      <path d="M 74.865312 234.72 
L 74.865312 7.2 
" clip-path="url(#p7e25bb3a4c)" style="fill: none; stroke: #b0b0b0; stroke-opacity: 0.2; stroke-width: 0.8; stroke-linecap: square"/>
     </g>
     <g id="line2d_2">
      <defs>
       <path id="meef2ca2def" d="M 0 0 
L 0 4 
" style="stroke: #333333; stroke-width: 1.2"/>
      </defs>
      <g>
       <use xlink:href="#meef2ca2def" x="74.865312" y="234.72" style="fill: #333333; stroke: #333333; stroke-width: 1.2"/>
      </g>
     </g>
     <g id="text_1">
      <!-- 1400 -->
      <g style="fill: #333333" transform="translate(58.322812 251.597969) scale(0.13 -0.13)">
       <defs>
        <path id="DejaVuSans-31" d="M 794 531 
L 1825 531 
L 1825 4091 
L 703 3866 
L 703 4441 
L 1819 4666 
L 2450 4666 
L 2450 531 
L 3481 531 
L 3481 0 
L 794 0 
L 794 531 
z
" transform="scale(0.015625)"/>
        <path id="DejaVuSans-34" d="M 2419 4116 
L 825 1625 
L 2419 1625 
L 2419 4116 
z
M 2253 4666 
L 3047 4666 
L 3047 1625 
L 3713 1625 
L 3713 1100 
L 3047 1100 
L 3047 0 
L 2419 0 
L 2419 1100 
L 313 1100 
L 313 1709 
L 2253 4666 
z
" transform="scale(0.015625)"/>
        <path id="DejaVuSans-30" d="M 2034 4250 
Q 1547 4250 1301 3770 
Q 1056 3291 1056 2328 
Q 1056 1369 1301 889 
Q 1547 409 2034 409 
Q 2525 409 2770 889 
Q 3016 1369 3016 2328 
Q 3016 3291 2770 3770 
Q 2525 4250 2034 4250 
z
M 2034 4750 
Q 2819 4750 3233 4129 
Q 3647 3509 3647 2328 
Q 3647 1150 3233 529 
Q 2819 -91 2034 -91 
Q 1250 -91 836 529 
Q 422 1150 422 2328 
Q 422 3509 836 4129 
Q 1250 4750 2034 4750 
z
" transform="scale(0.015625)"/>
       </defs>
       <use xlink:href="#DejaVuSans-31"/>
       <use xlink:href="#DejaVuSans-34" x="63.623047"/>
       <use xlink:href="#DejaVuSans-30" x="127.246094"/>
       <use xlink:href="#DejaVuSans-30" x="190.869141"/>
      </g>
     </g>
    </g>
    <g id="xtick_2">
     <g id="line2d_3">
      <path d="M 216.561312 234.72 
L 216.561312 7.2 
" clip-path="url(#p7e25bb3a4c)" style="fill: none; stroke: #b0b0b0; stroke-opacity: 0.2; stroke-width: 0.8; stroke-linecap: square"/>
     </g>
     <g id="line2d_4">
      <g>
       <use xlink:href="#meef2ca2def" x="216.561312" y="234.72" style="fill: #333333; stroke: #333333; stroke-width: 1.2"/>
      </g>
     </g>
     <g id="text_2">
      <!-- 1450 -->
      <g style="fill: #333333" transform="translate(200.018812 251.597969) scale(0.13 -0.13)">
       <defs>
        <path id="DejaVuSans-35" d="M 691 4666 
L 3169 4666 
L 3169 4134 
L 1269 4134 
L 1269 2991 
Q 1406 3038 1543 3061 
Q 1681 3084 1819 3084 
Q 2600 3084 3056 2656 
Q 3513 2228 3513 1497 
Q 3513 744 3044 326 
Q 2575 -91 1722 -91 
Q 1428 -91 1123 -41 
Q 819 9 494 109 
L 494 744 
Q 775 591 1075 516 
Q 1375 441 1709 441 
Q 2250 441 2565 725 
Q 2881 1009 2881 1497 
Q 2881 1984 2565 2268 
Q 2250 2553 1709 2553 
Q 1456 2553 1204 2497 
Q 953 2441 691 2322 
L 691 4666 
z
" transform="scale(0.015625)"/>
       </defs>
       <use xlink:href="#DejaVuSans-31"/>
       <use xlink:href="#DejaVuSans-34" x="63.623047"/>
       <use xlink:href="#DejaVuSans-35" x="127.246094"/>
       <use xlink:href="#DejaVuSans-30" x="190.869141"/>
      </g>
     </g>
    </g>
    <g id="xtick_3">
     <g id="line2d_5">
      <path d="M 358.257312 234.72 
L 358.257312 7.2 
" clip-path="url(#p7e25bb3a4c)" style="fill: none; stroke: #b0b0b0; stroke-opacity: 0.2; stroke-width: 0.8; stroke-linecap: square"/>
     </g>
     <g id="line2d_6">
      <g>
       <use xlink:href="#meef2ca2def" x="358.257312" y="234.72" style="fill: #333333; stroke: #333333; stroke-width: 1.2"/>
      </g>
     </g>
     <g id="text_3">
      <!-- 1500 -->
      <g style="fill: #333333" transform="translate(341.714812 251.597969) scale(0.13 -0.13)">
       <use xlink:href="#DejaVuSans-31"/>
       <use xlink:href="#DejaVuSans-35" x="63.623047"/>
       <use xlink:href="#DejaVuSans-30" x="127.246094"/>
       <use xlink:href="#DejaVuSans-30" x="190.869141"/>
      </g>
     </g>
    </g>
    <g id="xtick_4">
     <g id="line2d_7">
      <path d="M 499.953312 234.72 
L 499.953312 7.2 
" clip-path="url(#p7e25bb3a4c)" style="fill: none; stroke: #b0b0b0; stroke-opacity: 0.2; stroke-width: 0.8; stroke-linecap: square"/>
     </g>
     <g id="line2d_8">
      <g>
       <use xlink:href="#meef2ca2def" x="499.953312" y="234.72" style="fill: #333333; stroke: #333333; stroke-width: 1.2"/>
      </g>
     </g>
     <g id="text_4">
      <!-- 1550 -->
      <g style="fill: #333333" transform="translate(483.410812 251.597969) scale(0.13 -0.13)">
       <use xlink:href="#DejaVuSans-31"/>
       <use xlink:href="#DejaVuSans-35" x="63.623047"/>
       <use xlink:href="#DejaVuSans-35" x="127.246094"/>
       <use xlink:href="#DejaVuSans-30" x="190.869141"/>
      </g>
     </g>
    </g>
    <g id="xtick_5">
     <g id="line2d_9">
      <path d="M 641.649312 234.72 
L 641.649312 7.2 
" clip-path="url(#p7e25bb3a4c)" style="fill: none; stroke: #b0b0b0; stroke-opacity: 0.2; stroke-width: 0.8; stroke-linecap: square"/>
     </g>
     <g id="line2d_10">
      <g>
       <use xlink:href="#meef2ca2def" x="641.649312" y="234.72" style="fill: #333333; stroke: #333333; stroke-width: 1.2"/>
      </g>
     </g>
     <g id="text_5">
      <!-- 1600 -->
      <g style="fill: #333333" transform="translate(625.106812 251.597969) scale(0.13 -0.13)">
       <defs>
        <path id="DejaVuSans-36" d="M 2113 2584 
Q 1688 2584 1439 2293 
Q 1191 2003 1191 1497 
Q 1191 994 1439 701 
Q 1688 409 2113 409 
Q 2538 409 2786 701 
Q 3034 994 3034 1497 
Q 3034 2003 2786 2293 
Q 2538 2584 2113 2584 
z
M 3366 4563 
L 3366 3988 
Q 3128 4100 2886 4159 
Q 2644 4219 2406 4219 
Q 1781 4219 1451 3797 
Q 1122 3375 1075 2522 
Q 1259 2794 1537 2939 
Q 1816 3084 2150 3084 
Q 2853 3084 3261 2657 
Q 3669 2231 3669 1497 
Q 3669 778 3244 343 
Q 2819 -91 2113 -91 
Q 1303 -91 875 529 
Q 447 1150 447 2328 
Q 447 3434 972 4092 
Q 1497 4750 2381 4750 
Q 2619 4750 2861 4703 
Q 3103 4656 3366 4563 
z
" transform="scale(0.015625)"/>
       </defs>
       <use xlink:href="#DejaVuSans-31"/>
       <use xlink:href="#DejaVuSans-36" x="63.623047"/>
       <use xlink:href="#DejaVuSans-30" x="127.246094"/>
       <use xlink:href="#DejaVuSans-30" x="190.869141"/>
      </g>
     </g>
    </g>
    <g id="xtick_6">
     <g id="line2d_11">
      <path d="M 783.345312 234.72 
L 783.345312 7.2 
" clip-path="url(#p7e25bb3a4c)" style="fill: none; stroke: #b0b0b0; stroke-opacity: 0.2; stroke-width: 0.8; stroke-linecap: square"/>
     </g>
     <g id="line2d_12">
      <g>
       <use xlink:href="#meef2ca2def" x="783.345312" y="234.72" style="fill: #333333; stroke: #333333; stroke-width: 1.2"/>
      </g>
     </g>
     <g id="text_6">
      <!-- 1650 -->
      <g style="fill: #333333" transform="translate(766.802812 251.597969) scale(0.13 -0.13)">
       <use xlink:href="#DejaVuSans-31"/>
       <use xlink:href="#DejaVuSans-36" x="63.623047"/>
       <use xlink:href="#DejaVuSans-35" x="127.246094"/>
       <use xlink:href="#DejaVuSans-30" x="190.869141"/>
      </g>
     </g>
    </g>
    <g id="text_7">
     <!-- wavelength (nm) -->
     <g style="fill: #333333" transform="translate(352.324063 271.97875) scale(0.18 -0.18)">
      <defs>
       <path id="DejaVuSans-77" d="M 269 3500 
L 844 3500 
L 1563 769 
L 2278 3500 
L 2956 3500 
L 3675 769 
L 4391 3500 
L 4966 3500 
L 4050 0 
L 3372 0 
L 2619 2869 
L 1863 0 
L 1184 0 
L 269 3500 
z
" transform="scale(0.015625)"/>
       <path id="DejaVuSans-61" d="M 2194 1759 
Q 1497 1759 1228 1600 
Q 959 1441 959 1056 
Q 959 750 1161 570 
Q 1363 391 1709 391 
Q 2188 391 2477 730 
Q 2766 1069 2766 1631 
L 2766 1759 
L 2194 1759 
z
M 3341 1997 
L 3341 0 
L 2766 0 
L 2766 531 
Q 2569 213 2275 61 
Q 1981 -91 1556 -91 
Q 1019 -91 701 211 
Q 384 513 384 1019 
Q 384 1609 779 1909 
Q 1175 2209 1959 2209 
L 2766 2209 
L 2766 2266 
Q 2766 2663 2505 2880 
Q 2244 3097 1772 3097 
Q 1472 3097 1187 3025 
Q 903 2953 641 2809 
L 641 3341 
Q 956 3463 1253 3523 
Q 1550 3584 1831 3584 
Q 2591 3584 2966 3190 
Q 3341 2797 3341 1997 
z
" transform="scale(0.015625)"/>
       <path id="DejaVuSans-76" d="M 191 3500 
L 800 3500 
L 1894 563 
L 2988 3500 
L 3597 3500 
L 2284 0 
L 1503 0 
L 191 3500 
z
" transform="scale(0.015625)"/>
       <path id="DejaVuSans-65" d="M 3597 1894 
L 3597 1613 
L 953 1613 
Q 991 1019 1311 708 
Q 1631 397 2203 397 
Q 2534 397 2845 478 
Q 3156 559 3463 722 
L 3463 178 
Q 3153 47 2828 -22 
Q 2503 -91 2169 -91 
Q 1331 -91 842 396 
Q 353 884 353 1716 
Q 353 2575 817 3079 
Q 1281 3584 2069 3584 
Q 2775 3584 3186 3129 
Q 3597 2675 3597 1894 
z
M 3022 2063 
Q 3016 2534 2758 2815 
Q 2500 3097 2075 3097 
Q 1594 3097 1305 2825 
Q 1016 2553 972 2059 
L 3022 2063 
z
" transform="scale(0.015625)"/>
       <path id="DejaVuSans-6c" d="M 603 4863 
L 1178 4863 
L 1178 0 
L 603 0 
L 603 4863 
z
" transform="scale(0.015625)"/>
       <path id="DejaVuSans-6e" d="M 3513 2113 
L 3513 0 
L 2938 0 
L 2938 2094 
Q 2938 2591 2744 2837 
Q 2550 3084 2163 3084 
Q 1697 3084 1428 2787 
Q 1159 2491 1159 1978 
L 1159 0 
L 581 0 
L 581 3500 
L 1159 3500 
L 1159 2956 
Q 1366 3272 1645 3428 
Q 1925 3584 2291 3584 
Q 2894 3584 3203 3211 
Q 3513 2838 3513 2113 
z
" transform="scale(0.015625)"/>
       <path id="DejaVuSans-67" d="M 2906 1791 
Q 2906 2416 2648 2759 
Q 2391 3103 1925 3103 
Q 1463 3103 1205 2759 
Q 947 2416 947 1791 
Q 947 1169 1205 825 
Q 1463 481 1925 481 
Q 2391 481 2648 825 
Q 2906 1169 2906 1791 
z
M 3481 434 
Q 3481 -459 3084 -895 
Q 2688 -1331 1869 -1331 
Q 1566 -1331 1297 -1286 
Q 1028 -1241 775 -1147 
L 775 -588 
Q 1028 -725 1275 -790 
Q 1522 -856 1778 -856 
Q 2344 -856 2625 -561 
Q 2906 -266 2906 331 
L 2906 616 
Q 2728 306 2450 153 
Q 2172 0 1784 0 
Q 1141 0 747 490 
Q 353 981 353 1791 
Q 353 2603 747 3093 
Q 1141 3584 1784 3584 
Q 2172 3584 2450 3431 
Q 2728 3278 2906 2969 
L 2906 3500 
L 3481 3500 
L 3481 434 
z
" transform="scale(0.015625)"/>
       <path id="DejaVuSans-74" d="M 1172 4494 
L 1172 3500 
L 2356 3500 
L 2356 3053 
L 1172 3053 
L 1172 1153 
Q 1172 725 1289 603 
Q 1406 481 1766 481 
L 2356 481 
L 2356 0 
L 1766 0 
Q 1100 0 847 248 
Q 594 497 594 1153 
L 594 3053 
L 172 3053 
L 172 3500 
L 594 3500 
L 594 4494 
L 1172 4494 
z
" transform="scale(0.015625)"/>
       <path id="DejaVuSans-68" d="M 3513 2113 
L 3513 0 
L 2938 0 
L 2938 2094 
Q 2938 2591 2744 2837 
Q 2550 3084 2163 3084 
Q 1697 3084 1428 2787 
Q 1159 2491 1159 1978 
L 1159 0 
L 581 0 
L 581 4863 
L 1159 4863 
L 1159 2956 
Q 1366 3272 1645 3428 
Q 1925 3584 2291 3584 
Q 2894 3584 3203 3211 
Q 3513 2838 3513 2113 
z
" transform="scale(0.015625)"/>
       <path id="DejaVuSans-20" transform="scale(0.015625)"/>
       <path id="DejaVuSans-28" d="M 1984 4856 
Q 1566 4138 1362 3434 
Q 1159 2731 1159 2009 
Q 1159 1288 1364 580 
Q 1569 -128 1984 -844 
L 1484 -844 
Q 1016 -109 783 600 
Q 550 1309 550 2009 
Q 550 2706 781 3412 
Q 1013 4119 1484 4856 
L 1984 4856 
z
" transform="scale(0.015625)"/>
       <path id="DejaVuSans-6d" d="M 3328 2828 
Q 3544 3216 3844 3400 
Q 4144 3584 4550 3584 
Q 5097 3584 5394 3201 
Q 5691 2819 5691 2113 
L 5691 0 
L 5113 0 
L 5113 2094 
Q 5113 2597 4934 2840 
Q 4756 3084 4391 3084 
Q 3944 3084 3684 2787 
Q 3425 2491 3425 1978 
L 3425 0 
L 2847 0 
L 2847 2094 
Q 2847 2600 2669 2842 
Q 2491 3084 2119 3084 
Q 1678 3084 1418 2786 
Q 1159 2488 1159 1978 
L 1159 0 
L 581 0 
L 581 3500 
L 1159 3500 
L 1159 2956 
Q 1356 3278 1631 3431 
Q 1906 3584 2284 3584 
Q 2666 3584 2933 3390 
Q 3200 3197 3328 2828 
z
" transform="scale(0.015625)"/>
       <path id="DejaVuSans-29" d="M 513 4856 
L 1013 4856 
Q 1481 4119 1714 3412 
Q 1947 2706 1947 2009 
Q 1947 1309 1714 600 
Q 1481 -109 1013 -844 
L 513 -844 
Q 928 -128 1133 580 
Q 1338 1288 1338 2009 
Q 1338 2731 1133 3434 
Q 928 4138 513 4856 
z
" transform="scale(0.015625)"/>
      </defs>
      <use xlink:href="#DejaVuSans-77"/>
      <use xlink:href="#DejaVuSans-61" x="81.787109"/>
      <use xlink:href="#DejaVuSans-76" x="143.066406"/>
      <use xlink:href="#DejaVuSans-65" x="202.246094"/>
      <use xlink:href="#DejaVuSans-6c" x="263.769531"/>
      <use xlink:href="#DejaVuSans-65" x="291.552734"/>
      <use xlink:href="#DejaVuSans-6e" x="353.076172"/>
      <use xlink:href="#DejaVuSans-67" x="416.455078"/>
      <use xlink:href="#DejaVuSans-74" x="479.931641"/>
      <use xlink:href="#DejaVuSans-68" x="519.140625"/>
      <use xlink:href="#DejaVuSans-20" x="582.519531"/>
      <use xlink:href="#DejaVuSans-28" x="614.306641"/>
      <use xlink:href="#DejaVuSans-6e" x="653.320312"/>
      <use xlink:href="#DejaVuSans-6d" x="716.699219"/>
      <use xlink:href="#DejaVuSans-29" x="814.111328"/>
     </g>
    </g>
   </g>
   <g id="matplotlib.axis_2">
    <g id="ytick_1">
     <g id="line2d_13">
      <path d="M 74.865313 228.280755 
L 783.345312 228.280755 
" clip-path="url(#p7e25bb3a4c)" style="fill: none; stroke: #b0b0b0; stroke-opacity: 0.2; stroke-width: 0.8; stroke-linecap: square"/>
     </g>
     <g id="line2d_14">
      <defs>
       <path id="me3004625c4" d="M 0 0 
L -4 0 
" style="stroke: #333333; stroke-width: 1.2"/>
      </defs>
      <g>
       <use xlink:href="#me3004625c4" x="74.865313" y="228.280755" style="fill: #333333; stroke: #333333; stroke-width: 1.2"/>
      </g>
     </g>
     <g id="text_8">
      <!-- 0.00 -->
      <g style="fill: #333333" transform="translate(38.92 233.219739) scale(0.13 -0.13)">
       <defs>
        <path id="DejaVuSans-2e" d="M 684 794 
L 1344 794 
L 1344 0 
L 684 0 
L 684 794 
z
" transform="scale(0.015625)"/>
       </defs>
       <use xlink:href="#DejaVuSans-30"/>
       <use xlink:href="#DejaVuSans-2e" x="63.623047"/>
       <use xlink:href="#DejaVuSans-30" x="95.410156"/>
       <use xlink:href="#DejaVuSans-30" x="159.033203"/>
      </g>
     </g>
    </g>
    <g id="ytick_2">
     <g id="line2d_15">
      <path d="M 74.865313 181.907742 
L 783.345312 181.907742 
" clip-path="url(#p7e25bb3a4c)" style="fill: none; stroke: #b0b0b0; stroke-opacity: 0.2; stroke-width: 0.8; stroke-linecap: square"/>
     </g>
     <g id="line2d_16">
      <g>
       <use xlink:href="#me3004625c4" x="74.865313" y="181.907742" style="fill: #333333; stroke: #333333; stroke-width: 1.2"/>
      </g>
     </g>
     <g id="text_9">
      <!-- 0.02 -->
      <g style="fill: #333333" transform="translate(38.92 186.846726) scale(0.13 -0.13)">
       <defs>
        <path id="DejaVuSans-32" d="M 1228 531 
L 3431 531 
L 3431 0 
L 469 0 
L 469 531 
Q 828 903 1448 1529 
Q 2069 2156 2228 2338 
Q 2531 2678 2651 2914 
Q 2772 3150 2772 3378 
Q 2772 3750 2511 3984 
Q 2250 4219 1831 4219 
Q 1534 4219 1204 4116 
Q 875 4013 500 3803 
L 500 4441 
Q 881 4594 1212 4672 
Q 1544 4750 1819 4750 
Q 2544 4750 2975 4387 
Q 3406 4025 3406 3419 
Q 3406 3131 3298 2873 
Q 3191 2616 2906 2266 
Q 2828 2175 2409 1742 
Q 1991 1309 1228 531 
z
" transform="scale(0.015625)"/>
       </defs>
       <use xlink:href="#DejaVuSans-30"/>
       <use xlink:href="#DejaVuSans-2e" x="63.623047"/>
       <use xlink:href="#DejaVuSans-30" x="95.410156"/>
       <use xlink:href="#DejaVuSans-32" x="159.033203"/>
      </g>
     </g>
    </g>
    <g id="ytick_3">
     <g id="line2d_17">
      <path d="M 74.865313 135.534729 
L 783.345312 135.534729 
" clip-path="url(#p7e25bb3a4c)" style="fill: none; stroke: #b0b0b0; stroke-opacity: 0.2; stroke-width: 0.8; stroke-linecap: square"/>
     </g>
     <g id="line2d_18">
      <g>
       <use xlink:href="#me3004625c4" x="74.865313" y="135.534729" style="fill: #333333; stroke: #333333; stroke-width: 1.2"/>
      </g>
     </g>
     <g id="text_10">
      <!-- 0.04 -->
      <g style="fill: #333333" transform="translate(38.92 140.473713) scale(0.13 -0.13)">
       <use xlink:href="#DejaVuSans-30"/>
       <use xlink:href="#DejaVuSans-2e" x="63.623047"/>
       <use xlink:href="#DejaVuSans-30" x="95.410156"/>
       <use xlink:href="#DejaVuSans-34" x="159.033203"/>
      </g>
     </g>
    </g>
    <g id="ytick_4">
     <g id="line2d_19">
      <path d="M 74.865313 89.161716 
L 783.345312 89.161716 
" clip-path="url(#p7e25bb3a4c)" style="fill: none; stroke: #b0b0b0; stroke-opacity: 0.2; stroke-width: 0.8; stroke-linecap: square"/>
     </g>
     <g id="line2d_20">
      <g>
       <use xlink:href="#me3004625c4" x="74.865313" y="89.161716" style="fill: #333333; stroke: #333333; stroke-width: 1.2"/>
      </g>
     </g>
     <g id="text_11">
      <!-- 0.06 -->
      <g style="fill: #333333" transform="translate(38.92 94.100701) scale(0.13 -0.13)">
       <use xlink:href="#DejaVuSans-30"/>
       <use xlink:href="#DejaVuSans-2e" x="63.623047"/>
       <use xlink:href="#DejaVuSans-30" x="95.410156"/>
       <use xlink:href="#DejaVuSans-36" x="159.033203"/>
      </g>
     </g>
    </g>
    <g id="ytick_5">
     <g id="line2d_21">
      <path d="M 74.865313 42.788703 
L 783.345312 42.788703 
" clip-path="url(#p7e25bb3a4c)" style="fill: none; stroke: #b0b0b0; stroke-opacity: 0.2; stroke-width: 0.8; stroke-linecap: square"/>
     </g>
     <g id="line2d_22">
      <g>
       <use xlink:href="#me3004625c4" x="74.865313" y="42.788703" style="fill: #333333; stroke: #333333; stroke-width: 1.2"/>
      </g>
     </g>
     <g id="text_12">
      <!-- 0.08 -->
      <g style="fill: #333333" transform="translate(38.92 47.727688) scale(0.13 -0.13)">
       <defs>
        <path id="DejaVuSans-38" d="M 2034 2216 
Q 1584 2216 1326 1975 
Q 1069 1734 1069 1313 
Q 1069 891 1326 650 
Q 1584 409 2034 409 
Q 2484 409 2743 651 
Q 3003 894 3003 1313 
Q 3003 1734 2745 1975 
Q 2488 2216 2034 2216 
z
M 1403 2484 
Q 997 2584 770 2862 
Q 544 3141 544 3541 
Q 544 4100 942 4425 
Q 1341 4750 2034 4750 
Q 2731 4750 3128 4425 
Q 3525 4100 3525 3541 
Q 3525 3141 3298 2862 
Q 3072 2584 2669 2484 
Q 3125 2378 3379 2068 
Q 3634 1759 3634 1313 
Q 3634 634 3220 271 
Q 2806 -91 2034 -91 
Q 1263 -91 848 271 
Q 434 634 434 1313 
Q 434 1759 690 2068 
Q 947 2378 1403 2484 
z
M 1172 3481 
Q 1172 3119 1398 2916 
Q 1625 2713 2034 2713 
Q 2441 2713 2670 2916 
Q 2900 3119 2900 3481 
Q 2900 3844 2670 4047 
Q 2441 4250 2034 4250 
Q 1625 4250 1398 4047 
Q 1172 3844 1172 3481 
z
" transform="scale(0.015625)"/>
       </defs>
       <use xlink:href="#DejaVuSans-30"/>
       <use xlink:href="#DejaVuSans-2e" x="63.623047"/>
       <use xlink:href="#DejaVuSans-30" x="95.410156"/>
       <use xlink:href="#DejaVuSans-38" x="159.033203"/>
      </g>
     </g>
    </g>
    <g id="text_13">
     <!-- $(\frac{photons}{second*nm})$ -->
     <g style="fill: #333333" transform="translate(27.36 167.4) rotate(-90) scale(0.18 -0.18)">
      <defs>
       <path id="DejaVuSans-Oblique-70" d="M 3175 2156 
Q 3175 2616 2975 2859 
Q 2775 3103 2400 3103 
Q 2144 3103 1911 2972 
Q 1678 2841 1497 2591 
Q 1319 2344 1212 1994 
Q 1106 1644 1106 1300 
Q 1106 863 1306 627 
Q 1506 391 1875 391 
Q 2147 391 2380 519 
Q 2613 647 2778 891 
Q 2956 1147 3065 1494 
Q 3175 1841 3175 2156 
z
M 1394 2969 
Q 1625 3272 1939 3428 
Q 2253 3584 2638 3584 
Q 3175 3584 3472 3232 
Q 3769 2881 3769 2247 
Q 3769 1728 3584 1258 
Q 3400 788 3053 416 
Q 2822 169 2531 39 
Q 2241 -91 1919 -91 
Q 1547 -91 1294 64 
Q 1041 219 916 525 
L 556 -1331 
L -19 -1331 
L 922 3500 
L 1497 3500 
L 1394 2969 
z
" transform="scale(0.015625)"/>
       <path id="DejaVuSans-Oblique-68" d="M 3566 2113 
L 3156 0 
L 2578 0 
L 2988 2091 
Q 3016 2238 3031 2350 
Q 3047 2463 3047 2528 
Q 3047 2791 2881 2937 
Q 2716 3084 2419 3084 
Q 1956 3084 1617 2771 
Q 1278 2459 1178 1941 
L 800 0 
L 225 0 
L 1172 4863 
L 1747 4863 
L 1375 2950 
Q 1594 3244 1934 3414 
Q 2275 3584 2650 3584 
Q 3113 3584 3367 3334 
Q 3622 3084 3622 2631 
Q 3622 2519 3608 2391 
Q 3594 2263 3566 2113 
z
" transform="scale(0.015625)"/>
       <path id="DejaVuSans-Oblique-6f" d="M 1625 -91 
Q 1009 -91 651 289 
Q 294 669 294 1325 
Q 294 1706 417 2101 
Q 541 2497 738 2766 
Q 1047 3184 1428 3384 
Q 1809 3584 2291 3584 
Q 2888 3584 3255 3212 
Q 3622 2841 3622 2241 
Q 3622 1825 3500 1412 
Q 3378 1000 3181 728 
Q 2875 309 2494 109 
Q 2113 -91 1625 -91 
z
M 891 1344 
Q 891 869 1089 633 
Q 1288 397 1691 397 
Q 2269 397 2648 901 
Q 3028 1406 3028 2181 
Q 3028 2634 2825 2865 
Q 2622 3097 2228 3097 
Q 1903 3097 1650 2945 
Q 1397 2794 1197 2484 
Q 1050 2253 970 1956 
Q 891 1659 891 1344 
z
" transform="scale(0.015625)"/>
       <path id="DejaVuSans-Oblique-74" d="M 2706 3500 
L 2619 3053 
L 1472 3053 
L 1100 1153 
Q 1081 1047 1072 975 
Q 1063 903 1063 863 
Q 1063 663 1183 572 
Q 1303 481 1569 481 
L 2150 481 
L 2053 0 
L 1503 0 
Q 991 0 739 200 
Q 488 400 488 806 
Q 488 878 497 964 
Q 506 1050 525 1153 
L 897 3053 
L 409 3053 
L 500 3500 
L 978 3500 
L 1172 4494 
L 1747 4494 
L 1556 3500 
L 2706 3500 
z
" transform="scale(0.015625)"/>
       <path id="DejaVuSans-Oblique-6e" d="M 3566 2113 
L 3156 0 
L 2578 0 
L 2988 2091 
Q 3016 2238 3031 2350 
Q 3047 2463 3047 2528 
Q 3047 2791 2881 2937 
Q 2716 3084 2419 3084 
Q 1956 3084 1622 2776 
Q 1288 2469 1184 1941 
L 800 0 
L 225 0 
L 903 3500 
L 1478 3500 
L 1363 2950 
Q 1603 3253 1940 3418 
Q 2278 3584 2650 3584 
Q 3113 3584 3367 3334 
Q 3622 3084 3622 2631 
Q 3622 2519 3608 2391 
Q 3594 2263 3566 2113 
z
" transform="scale(0.015625)"/>
       <path id="DejaVuSans-Oblique-73" d="M 3200 3397 
L 3091 2853 
Q 2863 2978 2609 3040 
Q 2356 3103 2088 3103 
Q 1634 3103 1373 2948 
Q 1113 2794 1113 2528 
Q 1113 2219 1719 2053 
Q 1766 2041 1788 2034 
L 1972 1978 
Q 2547 1819 2739 1644 
Q 2931 1469 2931 1166 
Q 2931 609 2489 259 
Q 2047 -91 1331 -91 
Q 1053 -91 747 -37 
Q 441 16 72 128 
L 184 722 
Q 500 559 806 475 
Q 1113 391 1394 391 
Q 1816 391 2080 572 
Q 2344 753 2344 1031 
Q 2344 1331 1650 1516 
L 1591 1531 
L 1394 1581 
Q 956 1697 753 1886 
Q 550 2075 550 2369 
Q 550 2928 970 3256 
Q 1391 3584 2113 3584 
Q 2397 3584 2667 3537 
Q 2938 3491 3200 3397 
z
" transform="scale(0.015625)"/>
       <path id="DejaVuSans-Oblique-65" d="M 3078 2063 
Q 3088 2113 3092 2166 
Q 3097 2219 3097 2272 
Q 3097 2653 2873 2875 
Q 2650 3097 2266 3097 
Q 1838 3097 1509 2826 
Q 1181 2556 1013 2059 
L 3078 2063 
z
M 3578 1613 
L 903 1613 
Q 884 1494 878 1425 
Q 872 1356 872 1306 
Q 872 872 1139 634 
Q 1406 397 1894 397 
Q 2269 397 2603 481 
Q 2938 566 3225 728 
L 3116 159 
Q 2806 34 2476 -28 
Q 2147 -91 1806 -91 
Q 1078 -91 686 257 
Q 294 606 294 1247 
Q 294 1794 489 2264 
Q 684 2734 1063 3103 
Q 1306 3334 1642 3459 
Q 1978 3584 2356 3584 
Q 2950 3584 3301 3228 
Q 3653 2872 3653 2272 
Q 3653 2128 3634 1964 
Q 3616 1800 3578 1613 
z
" transform="scale(0.015625)"/>
       <path id="DejaVuSans-Oblique-63" d="M 3431 3366 
L 3316 2797 
Q 3109 2947 2876 3022 
Q 2644 3097 2394 3097 
Q 2119 3097 1870 3000 
Q 1622 2903 1453 2725 
Q 1184 2453 1037 2087 
Q 891 1722 891 1331 
Q 891 859 1127 628 
Q 1363 397 1844 397 
Q 2081 397 2348 469 
Q 2616 541 2906 684 
L 2797 116 
Q 2547 13 2283 -39 
Q 2019 -91 1741 -91 
Q 1044 -91 669 257 
Q 294 606 294 1253 
Q 294 1797 489 2255 
Q 684 2713 1069 3078 
Q 1331 3328 1684 3456 
Q 2038 3584 2456 3584 
Q 2700 3584 2940 3529 
Q 3181 3475 3431 3366 
z
" transform="scale(0.015625)"/>
       <path id="DejaVuSans-Oblique-64" d="M 2675 525 
Q 2444 222 2128 65 
Q 1813 -91 1428 -91 
Q 903 -91 598 267 
Q 294 625 294 1247 
Q 294 1766 478 2236 
Q 663 2706 1013 3078 
Q 1244 3325 1534 3454 
Q 1825 3584 2144 3584 
Q 2481 3584 2739 3421 
Q 2997 3259 3138 2956 
L 3513 4863 
L 4091 4863 
L 3144 0 
L 2566 0 
L 2675 525 
z
M 891 1350 
Q 891 897 1095 644 
Q 1300 391 1663 391 
Q 1931 391 2161 520 
Q 2391 650 2566 903 
Q 2750 1166 2856 1509 
Q 2963 1853 2963 2188 
Q 2963 2622 2758 2865 
Q 2553 3109 2194 3109 
Q 1922 3109 1687 2981 
Q 1453 2853 1288 2613 
Q 1106 2353 998 2009 
Q 891 1666 891 1350 
z
" transform="scale(0.015625)"/>
       <path id="DejaVuSans-2a" d="M 3009 3897 
L 1888 3291 
L 3009 2681 
L 2828 2375 
L 1778 3009 
L 1778 1831 
L 1422 1831 
L 1422 3009 
L 372 2375 
L 191 2681 
L 1313 3291 
L 191 3897 
L 372 4206 
L 1422 3572 
L 1422 4750 
L 1778 4750 
L 1778 3572 
L 2828 4206 
L 3009 3897 
z
" transform="scale(0.015625)"/>
       <path id="DejaVuSans-Oblique-6d" d="M 5747 2113 
L 5338 0 
L 4763 0 
L 5166 2094 
Q 5191 2228 5203 2325 
Q 5216 2422 5216 2491 
Q 5216 2772 5059 2928 
Q 4903 3084 4622 3084 
Q 4203 3084 3875 2770 
Q 3547 2456 3450 1953 
L 3066 0 
L 2491 0 
L 2900 2094 
Q 2925 2209 2937 2307 
Q 2950 2406 2950 2484 
Q 2950 2769 2794 2926 
Q 2638 3084 2363 3084 
Q 1938 3084 1609 2770 
Q 1281 2456 1184 1953 
L 800 0 
L 225 0 
L 909 3500 
L 1484 3500 
L 1375 2956 
Q 1609 3263 1923 3423 
Q 2238 3584 2597 3584 
Q 2978 3584 3223 3384 
Q 3469 3184 3519 2828 
Q 3781 3197 4126 3390 
Q 4472 3584 4856 3584 
Q 5306 3584 5551 3325 
Q 5797 3066 5797 2591 
Q 5797 2488 5784 2364 
Q 5772 2241 5747 2113 
z
" transform="scale(0.015625)"/>
      </defs>
      <use xlink:href="#DejaVuSans-28" transform="translate(0 0.45625)"/>
      <use xlink:href="#DejaVuSans-Oblique-70" transform="translate(110.013672 58.810938) scale(0.7)"/>
      <use xlink:href="#DejaVuSans-Oblique-68" transform="translate(154.447266 58.810938) scale(0.7)"/>
      <use xlink:href="#DejaVuSans-Oblique-6f" transform="translate(198.8125 58.810938) scale(0.7)"/>
      <use xlink:href="#DejaVuSans-Oblique-74" transform="translate(241.639648 58.810938) scale(0.7)"/>
      <use xlink:href="#DejaVuSans-Oblique-6f" transform="translate(269.085938 58.810938) scale(0.7)"/>
      <use xlink:href="#DejaVuSans-Oblique-6e" transform="translate(311.913086 58.810938) scale(0.7)"/>
      <use xlink:href="#DejaVuSans-Oblique-73" transform="translate(356.27832 58.810938) scale(0.7)"/>
      <use xlink:href="#DejaVuSans-Oblique-73" transform="translate(39.013672 -40.185937) scale(0.7)"/>
      <use xlink:href="#DejaVuSans-Oblique-65" transform="translate(75.483398 -40.185937) scale(0.7)"/>
      <use xlink:href="#DejaVuSans-Oblique-63" transform="translate(118.549805 -40.185937) scale(0.7)"/>
      <use xlink:href="#DejaVuSans-Oblique-6f" transform="translate(157.036133 -40.185937) scale(0.7)"/>
      <use xlink:href="#DejaVuSans-Oblique-6e" transform="translate(199.863281 -40.185937) scale(0.7)"/>
      <use xlink:href="#DejaVuSans-Oblique-64" transform="translate(244.228516 -40.185937) scale(0.7)"/>
      <use xlink:href="#DejaVuSans-2a" transform="translate(302.299805 -40.185937) scale(0.7)"/>
      <use xlink:href="#DejaVuSans-Oblique-6e" transform="translate(350.9375 -40.185937) scale(0.7)"/>
      <use xlink:href="#DejaVuSans-Oblique-6d" transform="translate(395.302734 -40.185937) scale(0.7)"/>
      <use xlink:href="#DejaVuSans-29" transform="translate(475.991211 0.45625)"/>
      <path d="M 39.013672 19.253125 
L 39.013672 25.503125 
L 463.491211 25.503125 
L 463.491211 19.253125 
L 39.013672 19.253125 
z
"/>
     </g>
    </g>
   </g>
   <g id="line2d_23">
    <path d="M 74.784995 226.683555 
L 161.66969 224.495761 
L 175.700352 224.012092 
L 179.364245 223.86354 
L 184.872476 223.637828 
L 199.919136 222.932319 
L 205.911783 222.574236 
L 224.427996 221.390287 
L 228.613612 221.044749 
L 236.575271 220.398618 
L 250.838001 219.03047 
L 255.809345 218.463759 
L 261.08614 217.890953 
L 262.994949 217.638807 
L 266.229242 217.243923 
L 272.270242 216.520623 
L 294.223564 213.395604 
L 300.047142 212.405701 
L 301.094115 212.280129 
L 302.590698 212.092953 
L 318.822121 209.197758 
L 320.935395 208.840951 
L 321.992827 208.684214 
L 325.01699 208.071345 
L 326.22787 207.834048 
L 328.348585 207.37401 
L 333.507779 206.419291 
L 335.02759 206.139062 
L 340.660409 204.932871 
L 343.406129 204.355886 
L 345.544154 203.789478 
L 346.766851 203.602348 
L 355.192032 201.636955 
L 356.573888 201.276321 
L 358.571489 200.839968 
L 359.801716 200.482233 
L 362.264307 199.985945 
L 363.804875 199.438037 
L 364.729751 199.384485 
L 365.500789 199.232602 
L 373.536166 197.152501 
L 374.620168 196.933758 
L 379.893167 195.37227 
L 382.534556 194.658247 
L 383.934261 194.27779 
L 385.179213 193.909894 
L 388.13888 193.047718 
L 390.32231 192.445259 
L 391.72712 191.88709 
L 393.445362 191.375009 
L 395.164983 190.777037 
L 396.572972 190.372097 
L 397.355588 190.17497 
L 398.765016 189.599101 
L 402.841906 188.319877 
L 406.454847 187.105556 
L 407.241073 186.769094 
L 410.861422 185.7469 
L 411.649261 185.452711 
L 419.385378 182.372649 
L 420.018126 182.17112 
L 421.442487 181.447088 
L 422.392584 181.224059 
L 425.086799 180.173705 
L 426.038502 179.807274 
L 427.149353 179.237797 
L 429.213878 178.43105 
L 431.439421 177.38028 
L 433.50805 176.734995 
L 435.419311 175.937088 
L 436.216168 175.694734 
L 438.289371 174.72348 
L 439.246904 174.275282 
L 440.843733 173.269002 
L 441.962214 172.926651 
L 443.880954 171.923039 
L 445.641292 171.239177 
L 446.602079 170.533222 
L 447.24284 170.061537 
L 450.289041 168.675788 
L 451.251888 168.26384 
L 452.536348 167.932268 
L 453.178863 167.564058 
L 454.625216 166.363896 
L 456.233405 165.786402 
L 457.359846 165.337473 
L 458.164804 165.051078 
L 459.453356 164.147516 
L 460.581465 163.337726 
L 461.226362 163.168439 
L 462.032751 163.108776 
L 462.678078 162.664983 
L 464.292232 161.404136 
L 464.938228 160.984415 
L 465.745993 160.394171 
L 466.554058 160.098211 
L 467.524131 159.835624 
L 468.494636 159.185413 
L 470.275018 157.908475 
L 473.353649 156.411698 
L 475.138001 155.380019 
L 475.949553 154.83407 
L 476.761406 154.288672 
L 479.361364 152.434291 
L 480.337147 151.879541 
L 481.150632 151.365601 
L 481.964419 150.851707 
L 486.037903 148.17154 
L 486.85351 147.547889 
L 487.669422 146.879792 
L 488.975512 146.331931 
L 489.62885 146.16171 
L 490.282382 145.669152 
L 492.407708 143.686397 
L 493.225691 143.356067 
L 494.371379 142.714989 
L 497.812037 139.963577 
L 498.468012 139.547442 
L 499.780552 138.454423 
L 501.750832 136.893829 
L 503.229703 135.501493 
L 503.887298 135.126732 
L 505.861266 133.572067 
L 506.355035 133.186425 
L 507.178229 132.39952 
L 509.319977 130.999653 
L 510.30918 129.917312 
L 512.123873 127.964619 
L 514.105246 125.609934 
L 514.766099 125.462418 
L 515.757751 125.30776 
L 516.419101 124.916358 
L 516.915243 124.299153 
L 517.57694 123.362645 
L 518.735387 122.177462 
L 519.39763 121.41434 
L 519.894443 121.135993 
L 520.557034 120.877145 
L 521.054108 120.322935 
L 521.882814 119.234445 
L 524.868732 116.480182 
L 527.027742 114.105366 
L 527.692478 113.594901 
L 529.521531 111.711482 
L 530.519835 110.834982 
L 532.850965 108.10512 
L 533.684107 107.459436 
L 534.184142 107.055533 
L 534.684291 106.209816 
L 535.351332 105.141562 
L 536.185415 104.392611 
L 536.852909 103.722091 
L 537.687558 102.845724 
L 538.355504 102.332044 
L 539.023652 101.422931 
L 540.694902 98.974802 
L 541.363756 98.265459 
L 542.200106 96.989603 
L 543.036772 95.728738 
L 545.716226 92.981477 
L 546.386595 92.18447 
L 547.392529 90.846094 
L 549.573617 88.351016 
L 550.916891 86.465452 
L 552.092922 84.590581 
L 552.933325 83.901826 
L 554.615085 81.009483 
L 555.119862 80.733149 
L 555.624753 80.396919 
L 557.813938 77.5119 
L 559.66801 74.902191 
L 560.848678 73.169143 
L 561.692396 71.697482 
L 562.19878 71.355933 
L 562.705279 70.962551 
L 563.380791 70.033454 
L 564.901441 67.637835 
L 565.915785 67.019895 
L 566.254002 66.336534 
L 567.438167 63.117929 
L 569.638998 59.754411 
L 570.316614 58.771733 
L 570.994436 58.131366 
L 571.502938 57.690573 
L 572.011555 56.729281 
L 572.520288 55.739831 
L 572.859508 55.466973 
L 573.538103 55.101411 
L 574.386636 54.148261 
L 574.895911 53.1674 
L 575.914809 50.737251 
L 576.254545 50.443643 
L 576.934172 50.293231 
L 577.274063 49.692437 
L 578.124016 47.413981 
L 578.464088 47.050082 
L 579.314495 46.38566 
L 579.995053 45.433745 
L 580.505607 44.715024 
L 581.527066 43.723418 
L 582.719357 41.550998 
L 583.741827 40.185432 
L 584.253237 39.026106 
L 584.9353 37.344794 
L 585.276409 36.927213 
L 585.61757 36.829216 
L 586.470699 36.903673 
L 586.812042 36.409999 
L 587.836384 34.368907 
L 588.519538 33.223526 
L 589.032041 32.479963 
L 589.373774 32.339309 
L 589.886472 32.269612 
L 590.228336 32.012457 
L 590.570252 31.456942 
L 591.767369 28.829951 
L 593.136285 27.411344 
L 594.163521 27.101078 
L 595.019911 26.918557 
L 595.533901 26.346459 
L 596.219405 25.19775 
L 597.07658 23.395049 
L 597.591042 22.965051 
L 598.277174 22.711574 
L 598.791911 22.622076 
L 599.135135 22.321375 
L 599.993423 21.094511 
L 600.508554 20.878889 
L 601.023803 20.886184 
L 601.710985 21.098442 
L 602.054655 20.833879 
L 603.773793 18.43547 
L 604.633855 17.643861 
L 604.977972 17.457545 
L 605.322142 17.490894 
L 605.666364 17.57163 
L 605.838495 17.502492 
L 606.182797 17.008541 
L 606.871558 15.683431 
L 607.216018 15.463773 
L 607.732806 15.49071 
L 608.249713 15.856188 
L 608.766739 16.212509 
L 609.111489 16.10472 
L 610.318529 15.03348 
L 610.83603 14.527085 
L 611.181097 14.400574 
L 612.043996 14.452689 
L 612.561894 14.47033 
L 612.907225 14.249548 
L 613.598047 13.639245 
L 613.943537 13.783768 
L 615.326028 15.081901 
L 615.671784 15.046696 
L 616.190516 14.848119 
L 616.536404 15.067781 
L 617.228339 16.014699 
L 617.401356 16.082899 
L 617.74743 15.8586 
L 618.78597 14.401033 
L 618.959107 14.474014 
L 619.30542 14.963642 
L 619.824989 15.765937 
L 620.171435 15.963846 
L 620.864486 16.010252 
L 621.55775 15.974205 
L 621.904462 16.290537 
L 622.771475 17.477573 
L 623.118373 17.504856 
L 623.81233 17.258744 
L 624.332938 17.040942 
L 624.5065 17.095959 
L 624.853666 17.554686 
L 625.721812 19.169472 
L 626.069164 19.391539 
L 626.590292 19.417916 
L 627.11154 19.334171 
L 627.459106 19.545388 
L 627.980554 20.415906 
L 630.937705 26.070691 
L 631.285859 26.216689 
L 631.808191 26.103806 
L 632.330644 25.981098 
L 632.679013 26.178066 
L 633.027435 26.85379 
L 634.073024 29.568194 
L 634.596 30.114364 
L 635.119097 30.24349 
L 635.467895 30.471672 
L 635.816748 31.256324 
L 636.689113 34.168987 
L 637.038153 34.714302 
L 637.736395 35.430432 
L 638.260218 36.45008 
L 638.958837 38.513099 
L 640.007169 41.495174 
L 640.88115 43.39096 
L 641.4057 44.634407 
L 643.33009 50.027545 
L 644.380446 52.391552 
L 646.132121 57.665213 
L 647.008466 59.132939 
L 647.885149 61.803309 
L 648.937616 65.000926 
L 651.219635 73.295492 
L 652.800839 77.355297 
L 654.559023 83.061241 
L 655.614586 85.833789 
L 658.608013 95.775715 
L 659.312921 98.250882 
L 661.428956 104.01278 
L 662.311219 107.015172 
L 664.606701 113.54486 
L 666.197237 119.638009 
L 667.435089 122.804123 
L 668.496639 125.808806 
L 669.381642 128.142051 
L 671.507052 134.865528 
L 672.393223 137.305898 
L 673.9892 140.768408 
L 674.876336 142.61193 
L 675.586293 144.773449 
L 676.651643 147.966258 
L 679.139392 154.396678 
L 680.384282 157.042154 
L 682.341909 161.7704 
L 683.410413 163.983133 
L 684.123025 165.719185 
L 685.014103 168.027808 
L 691.440123 180.890054 
L 697.346511 190.532406 
L 698.242746 191.856274 
L 699.31869 193.494654 
L 700.395139 194.552791 
L 701.292565 195.587898 
L 702.36994 197.149281 
L 703.627516 199.157141 
L 704.705986 200.350611 
L 706.32464 202.076561 
L 709.205064 205.278178 
L 710.826889 206.459629 
L 712.089099 207.615359 
L 714.254498 209.730837 
L 717.325636 211.878971 
L 718.048852 212.256499 
L 719.315026 213.130246 
L 720.219861 213.643776 
L 721.849461 214.961863 
L 723.842757 215.753568 
L 725.29351 216.568629 
L 726.382173 216.998441 
L 729.287784 218.551146 
L 730.741962 219.121681 
L 732.74295 219.857304 
L 734.745671 220.62088 
L 742.591159 222.862973 
L 744.053721 223.139492 
L 746.615426 223.804128 
L 747.714167 223.998315 
L 749.363253 224.427948 
L 752.297859 224.757104 
L 754.133872 224.95786 
L 757.810257 225.52098 
L 759.650632 225.688757 
L 761.676727 225.852954 
L 763.704588 226.137221 
L 771.278572 226.772723 
L 775.723567 227.052504 
L 777.76369 227.157458 
L 779.991313 227.239074 
L 781.663425 227.335359 
L 783.522731 227.393442 
L 783.522731 227.393442 
" clip-path="url(#p7e25bb3a4c)" style="fill: none; stroke: #8170d4; stroke-width: 2.5; stroke-linecap: square"/>
   </g>
   <g id="line2d_24">
    <path d="M 74.784995 228.280748 
L 478.223502 228.176764 
L 480.337147 227.978714 
L 481.638868 227.671601 
L 482.452837 227.328831 
L 483.43 226.675071 
L 484.081684 225.989078 
L 484.896563 224.654795 
L 485.385636 223.534225 
L 486.037903 221.464148 
L 486.690365 218.684894 
L 487.179838 215.920081 
L 487.83264 211.178878 
L 488.648917 203.778222 
L 489.955591 189.413525 
L 492.244149 162.32341 
L 493.06207 156.00278 
L 493.880296 151.548787 
L 494.698828 148.509355 
L 495.353874 146.754441 
L 496.172955 145.342291 
L 497.320184 143.810309 
L 499.124184 142.030068 
L 499.944674 141.438526 
L 500.929667 140.883801 
L 502.243678 140.262325 
L 502.900979 139.970309 
L 503.394083 140.010687 
L 504.874061 140.710096 
L 505.20308 141.117762 
L 505.696701 142.07721 
L 506.519649 144.843074 
L 507.013566 147.286133 
L 507.672294 151.753482 
L 508.495981 158.661677 
L 509.979396 175.582784 
L 512.28892 203.664759 
L 513.114337 211.335917 
L 513.940063 217.13177 
L 514.600867 220.47371 
L 515.26187 222.881703 
L 516.253745 225.148428 
L 516.915243 226.144499 
L 517.742395 226.930566 
L 518.735387 227.508003 
L 520.060072 227.896359 
L 521.551294 228.094313 
L 524.868732 228.246126 
L 783.522731 228.280746 
L 783.522731 228.280746 
" clip-path="url(#p7e25bb3a4c)" style="fill: none; stroke: #f26b38; stroke-width: 2.5; stroke-linecap: square"/>
   </g>
   <g id="line2d_25">
    <path d="M 74.784995 227.664574 
L 171.761987 226.646482 
L 186.287244 226.416225 
L 219.819241 225.658729 
L 239.768555 224.998671 
L 277.145273 223.25489 
L 280.994251 223.049665 
L 299.5986 221.88691 
L 301.393346 221.774235 
L 305.587071 221.496143 
L 331.98906 219.45776 
L 362.72636 216.557972 
L 364.267263 216.388846 
L 365.809282 216.286532 
L 378.961691 214.780995 
L 388.76249 213.641153 
L 390.946556 213.32407 
L 393.132852 213.032515 
L 397.512145 212.456171 
L 399.235032 212.193938 
L 402.057287 211.839037 
L 405.040364 211.395371 
L 406.769303 211.116036 
L 409.916396 210.663975 
L 412.437389 210.337269 
L 414.803505 209.937486 
L 430.167402 207.291644 
L 431.757543 207.00502 
L 433.50805 206.760786 
L 438.289371 205.899421 
L 439.725829 205.561222 
L 441.003481 205.264424 
L 442.122045 205.091418 
L 444.20091 204.654339 
L 446.28177 204.220171 
L 447.723535 203.839785 
L 449.166259 203.583756 
L 451.572932 203.1115 
L 452.857582 202.924207 
L 453.821568 202.566637 
L 454.625216 202.321014 
L 458.003788 201.787147 
L 459.453356 201.365816 
L 460.90389 200.965631 
L 462.678078 200.725929 
L 465.099757 199.947672 
L 466.069183 199.691957 
L 468.656429 199.177026 
L 470.59888 198.628075 
L 472.056854 198.334392 
L 475.300287 197.53491 
L 479.361364 196.324 
L 481.638868 195.740361 
L 488.485637 193.753625 
L 490.445795 193.329185 
L 492.57128 192.507032 
L 494.535097 192.063046 
L 496.664551 191.286404 
L 502.572304 189.22095 
L 503.394083 188.971819 
L 504.21617 188.713572 
L 505.532148 188.240278 
L 506.519649 187.925141 
L 507.507593 187.578878 
L 509.319977 187.051023 
L 510.968896 186.291812 
L 512.453978 185.558791 
L 514.105246 184.726168 
L 515.427151 184.628368 
L 516.419101 184.412204 
L 517.080649 184.033435 
L 517.742395 183.67814 
L 518.569857 183.329197 
L 519.563222 182.848317 
L 521.054108 182.421468 
L 522.048592 181.888426 
L 524.868732 180.753984 
L 527.193907 179.67952 
L 528.02492 179.338018 
L 529.854249 178.573196 
L 530.686263 178.211183 
L 533.017568 177.047266 
L 534.684291 176.289511 
L 535.518123 175.750046 
L 539.023652 174.205553 
L 540.862097 173.078167 
L 541.698258 172.632903 
L 543.706332 171.422046 
L 550.413068 168.040161 
L 552.597126 166.741666 
L 553.101444 166.440107 
L 554.278632 165.476132 
L 554.95159 165.221942 
L 555.624753 165.041951 
L 558.150927 163.555717 
L 559.330791 162.812148 
L 560.51128 162.121538 
L 562.19878 161.091623 
L 562.874138 160.827505 
L 563.887559 160.110303 
L 564.732429 159.518533 
L 566.084887 159.059581 
L 566.592271 158.442932 
L 567.268962 157.621179 
L 568.453665 156.854313 
L 571.163924 155.254069 
L 571.672464 154.999568 
L 572.859508 154.138593 
L 573.707784 153.898612 
L 574.556382 153.434007 
L 575.235492 152.734141 
L 575.914809 152.065319 
L 576.424432 151.920231 
L 576.934172 151.859974 
L 577.274063 151.597087 
L 578.294046 150.50921 
L 579.824894 149.846832 
L 580.675818 149.345211 
L 581.35679 149.093965 
L 584.253237 146.909923 
L 584.9353 146.17648 
L 585.446983 145.95312 
L 586.641364 145.877238 
L 589.202901 143.973679 
L 590.228336 143.799383 
L 590.741229 143.383771 
L 591.596313 142.506541 
L 592.965125 141.8168 
L 593.992283 141.640794 
L 595.362558 141.373528 
L 596.219405 140.767671 
L 597.248054 139.889055 
L 598.105621 139.681621 
L 599.135135 139.479664 
L 600.16512 138.886957 
L 601.023803 138.829246 
L 601.882813 138.869549 
L 602.398377 138.549706 
L 603.42986 137.909361 
L 604.633855 137.36945 
L 605.150051 137.276272 
L 605.838495 137.287963 
L 606.182797 137.068861 
L 606.871558 136.484973 
L 607.388267 136.37122 
L 608.077397 136.47018 
L 608.766739 136.681037 
L 609.283883 136.56744 
L 611.35365 135.850344 
L 612.907225 135.761817 
L 613.598047 135.486072 
L 614.116302 135.617062 
L 615.153171 136.051973 
L 615.671784 136.058981 
L 616.363454 135.986843 
L 616.882345 136.271174 
L 617.401356 136.477625 
L 617.74743 136.374678 
L 618.78597 135.726201 
L 619.132257 135.839377 
L 619.998205 136.352757 
L 620.864486 136.387137 
L 621.731099 136.405354 
L 623.118373 136.996026 
L 624.680076 136.867157 
L 626.069164 137.763677 
L 626.937777 137.726219 
L 627.459106 137.807081 
L 628.154397 138.318392 
L 631.111775 140.623655 
L 631.808191 140.579294 
L 632.504821 140.535578 
L 632.853217 140.713858 
L 633.375911 141.329705 
L 633.898726 141.917762 
L 634.421662 142.220291 
L 635.119097 142.322548 
L 635.467895 142.41607 
L 635.816748 142.751172 
L 636.863626 144.139096 
L 638.260218 144.968331 
L 639.133525 146.090429 
L 640.181938 147.316545 
L 641.930372 149.174094 
L 643.155078 150.619063 
L 644.730673 152.308614 
L 645.781678 153.767498 
L 646.482618 154.293645 
L 647.008466 154.701377 
L 648.411321 156.484872 
L 649.113074 157.518683 
L 650.868406 160.406045 
L 652.097946 161.708158 
L 652.800839 162.558432 
L 654.734916 165.205336 
L 655.614586 166.218583 
L 658.608013 170.518587 
L 659.312921 171.590284 
L 661.428956 174.081456 
L 662.487712 175.593139 
L 664.430043 177.921791 
L 665.490195 179.859162 
L 666.197237 180.855235 
L 667.611979 182.462439 
L 668.673612 183.711561 
L 669.381642 184.542181 
L 671.684258 187.704341 
L 672.570499 188.702989 
L 674.344013 190.319182 
L 675.053805 191.032854 
L 678.606075 195.466921 
L 684.301213 201.103268 
L 685.192361 202.047364 
L 686.797301 203.536009 
L 688.22486 204.814154 
L 694.659903 209.816315 
L 696.27149 210.952321 
L 697.346511 211.709616 
L 698.601338 212.553681 
L 699.498063 213.092647 
L 701.831189 214.231754 
L 704.88578 216.080235 
L 707.584382 217.369423 
L 709.745546 218.310863 
L 711.548067 218.952158 
L 715.518589 220.488813 
L 717.325636 221.054803 
L 718.410545 221.344371 
L 719.495964 221.638538 
L 720.400871 221.90011 
L 721.849461 222.408281 
L 724.20536 222.857664 
L 725.474918 223.139453 
L 726.926696 223.444427 
L 730.014759 224.123034 
L 737.479451 225.264522 
L 751.56386 226.669428 
L 768.319941 227.511642 
L 775.908959 227.742618 
L 779.062878 227.786076 
L 783.522731 227.885279 
L 783.522731 227.885279 
" clip-path="url(#p7e25bb3a4c)" style="fill: none; stroke: #6ba8c7; stroke-width: 2.5; stroke-linecap: square"/>
   </g>
   <g id="line2d_26">
    <path d="M 74.784995 228.280752 
L 480.011838 228.172837 
L 481.964419 227.972768 
L 483.43 227.603681 
L 484.407599 227.110949 
L 485.222599 226.473501 
L 486.201 225.151003 
L 486.85351 223.899566 
L 487.506215 222.171999 
L 488.648917 217.938052 
L 489.955591 211.870387 
L 492.244149 200.41997 
L 493.06207 197.74519 
L 493.880296 195.858284 
L 494.698828 194.568578 
L 495.353874 193.822504 
L 496.336808 193.117455 
L 497.648074 192.420063 
L 500.929667 191.300802 
L 503.558476 190.942754 
L 504.874061 191.198706 
L 505.367608 191.485515 
L 505.861266 191.976701 
L 506.519649 192.937468 
L 507.013566 193.969013 
L 507.672294 195.857347 
L 508.495981 198.7795 
L 509.979396 205.943399 
L 512.28892 217.841951 
L 513.114337 221.093873 
L 513.940063 223.551331 
L 514.600867 224.968563 
L 515.26187 225.989876 
L 516.253745 226.951417 
L 517.080649 227.451362 
L 518.238835 227.84659 
L 519.894443 228.103757 
L 522.877671 228.239883 
L 529.854249 228.276924 
L 637.561815 228.280276 
L 783.522731 228.280751 
L 783.522731 228.280751 
" clip-path="url(#p7e25bb3a4c)" style="fill: none; stroke: #a7226e; stroke-width: 2.5; stroke-linecap: square"/>
   </g>
   <g id="line2d_27">
    <path d="M 74.784995 228.107213 
L 199.776667 227.659975 
L 257.273776 227.082439 
L 289.606093 226.557254 
L 330.623146 225.634504 
L 363.342587 224.65382 
L 380.048452 224.08613 
L 394.852222 223.48669 
L 410.388857 222.793381 
L 413.225805 222.644584 
L 423.026214 222.13006 
L 439.246904 221.20806 
L 443.720995 220.891113 
L 448.364627 220.574311 
L 460.097918 219.731846 
L 462.032751 219.654395 
L 465.422851 219.306527 
L 472.380981 218.792535 
L 480.174486 218.098986 
L 488.812208 217.303454 
L 490.772659 217.133434 
L 493.552969 216.853974 
L 496.992343 216.47645 
L 511.958839 214.722935 
L 514.766099 214.338112 
L 516.74985 214.200713 
L 519.39763 213.758747 
L 524.204846 213.1599 
L 533.184184 211.806465 
L 535.017786 211.492467 
L 536.686016 211.249067 
L 550.748937 208.775192 
L 554.615085 207.949334 
L 557.30855 207.543074 
L 565.408556 205.967612 
L 566.254002 205.807817 
L 567.776615 205.279702 
L 577.783996 203.159731 
L 578.464088 202.995437 
L 579.995053 202.752721 
L 585.78817 201.488371 
L 586.641364 201.456581 
L 589.54466 200.808034 
L 590.570252 200.673443 
L 592.280614 200.204724 
L 593.649844 200.045078 
L 595.876627 199.819104 
L 598.105621 199.357018 
L 599.478411 199.202453 
L 600.508554 199.063056 
L 602.570258 198.913075 
L 604.461816 198.576117 
L 605.666364 198.530366 
L 606.354967 198.389139 
L 607.216018 198.212489 
L 608.422042 198.275381 
L 609.283883 198.257035 
L 611.87139 198.005232 
L 613.25261 197.90715 
L 613.943537 197.886462 
L 615.671784 198.042777 
L 616.709368 198.066421 
L 617.574387 198.15714 
L 619.30542 197.983378 
L 620.171435 198.11414 
L 622.251227 198.216125 
L 623.118373 198.294931 
L 624.853666 198.279555 
L 626.069164 198.52547 
L 627.980554 198.646979 
L 631.285859 199.432926 
L 632.853217 199.447223 
L 634.770353 199.958415 
L 635.642315 200.03217 
L 637.561815 200.642272 
L 638.434853 200.875311 
L 641.055987 201.826424 
L 642.455165 202.389607 
L 646.657887 203.872363 
L 647.534435 204.190049 
L 650.166111 205.495429 
L 651.219635 205.964408 
L 653.328151 206.797604 
L 654.734916 207.400321 
L 656.142552 207.977162 
L 660.194363 209.783906 
L 661.428956 210.309484 
L 662.84074 210.93599 
L 664.606701 211.665598 
L 666.374032 212.596833 
L 667.965802 213.217782 
L 674.1666 215.605526 
L 675.408783 216.046917 
L 677.539814 216.945072 
L 679.317192 217.56519 
L 681.095953 218.16447 
L 685.370632 219.582156 
L 696.808937 222.625074 
L 700.395139 223.322439 
L 702.549551 223.746033 
L 704.526206 224.141783 
L 717.325636 225.852506 
L 720.400871 226.135008 
L 722.574097 226.338385 
L 727.108233 226.667275 
L 733.835128 227.092611 
L 742.591159 227.470269 
L 748.630181 227.683227 
L 753.950206 227.77845 
L 783.522731 228.145789 
L 783.522731 228.145789 
" clip-path="url(#p7e25bb3a4c)" style="fill: none; stroke: #7090d4; stroke-width: 2.5; stroke-linecap: square"/>
   </g>
   <g id="line2d_28">
    <path d="M 74.784995 228.280754 
L 482.127213 228.173722 
L 484.244636 227.942142 
L 485.548685 227.583557 
L 486.527231 227.100887 
L 487.506215 226.342095 
L 488.812208 224.774471 
L 489.955591 223.069458 
L 492.244149 219.427952 
L 493.06207 218.575962 
L 494.043978 217.878846 
L 494.862571 217.489828 
L 496.172955 217.128713 
L 498.632037 216.742653 
L 500.601287 216.522851 
L 504.21617 216.407112 
L 505.367608 216.548949 
L 506.190433 216.827288 
L 507.178229 217.467147 
L 508.001732 218.284719 
L 508.990342 219.571642 
L 510.47409 222.009633 
L 512.123873 224.713576 
L 513.279457 226.159994 
L 514.105246 226.905408 
L 515.26187 227.548454 
L 516.74985 227.959316 
L 518.238835 228.141863 
L 521.219824 228.25105 
L 531.3521 228.280088 
L 783.522731 228.280753 
L 783.522731 228.280753 
" clip-path="url(#p7e25bb3a4c)" style="fill: none; stroke: #ec2049; stroke-width: 2.5; stroke-linecap: square"/>
   </g>
   <g id="line2d_29">
    <path d="M 74.784995 228.229539 
L 237.735894 227.98663 
L 328.045495 227.459331 
L 400.959302 226.647595 
L 436.534993 226.025354 
L 457.359846 225.54934 
L 465.261298 225.331753 
L 481.150632 224.885583 
L 495.517665 224.416755 
L 513.279457 223.678026 
L 515.92307 223.618838 
L 521.219824 223.366941 
L 526.363207 223.106089 
L 566.930591 220.591082 
L 569.130921 220.411243 
L 574.047184 220.098631 
L 577.954 219.754284 
L 580.846041 219.582029 
L 583.571383 219.376449 
L 593.136285 218.695702 
L 596.733671 218.50986 
L 598.44874 218.435105 
L 602.570258 218.27846 
L 605.494247 218.140737 
L 607.216018 218.028454 
L 620.344677 217.963359 
L 625.374513 218.058974 
L 627.11154 218.07962 
L 628.849903 218.20053 
L 631.808191 218.379137 
L 633.201666 218.431062 
L 634.770353 218.560312 
L 636.165653 218.665821 
L 637.387247 218.781227 
L 638.958837 218.94254 
L 643.33009 219.483655 
L 647.885149 220.039973 
L 653.679761 220.935787 
L 660.547036 221.936497 
L 665.136757 222.649748 
L 666.727663 222.897169 
L 671.329858 223.555765 
L 673.9892 223.873742 
L 676.651643 224.229167 
L 683.410413 225.022822 
L 697.167306 226.338456 
L 710.64663 227.147784 
L 726.563666 227.698382 
L 737.11476 227.917528 
L 759.098367 228.141398 
L 783.522731 228.232831 
L 783.522731 228.232831 
" clip-path="url(#p7e25bb3a4c)" style="fill: none; stroke: #000000; stroke-width: 2.5; stroke-linecap: square"/>
   </g>
   <g id="line2d_30">
    <path d="M 74.784995 228.280755 
L 484.081684 228.179384 
L 486.36411 227.924711 
L 487.83264 227.522246 
L 489.302157 226.892531 
L 493.225691 225.016878 
L 495.026326 224.68231 
L 497.648074 224.493104 
L 504.21617 224.332999 
L 506.025843 224.450908 
L 507.178229 224.682773 
L 508.495981 225.147484 
L 510.639013 226.289164 
L 512.453978 227.246107 
L 514.105246 227.822347 
L 515.92307 228.110554 
L 518.735387 228.245725 
L 527.193907 228.280266 
L 783.522731 228.280754 
L 783.522731 228.280754 
" clip-path="url(#p7e25bb3a4c)" style="fill: none; stroke: #000000; stroke-width: 2.5; stroke-linecap: square"/>
   </g>
   <g id="patch_3">
    <path d="M 74.865313 234.72 
L 74.865313 7.2 
" style="fill: none; stroke: #333333; stroke-width: 1.2; stroke-linejoin: miter; stroke-linecap: square"/>
   </g>
   <g id="patch_4">
    <path d="M 74.865312 234.72 
L 783.345312 234.72 
" style="fill: none; stroke: #333333; stroke-width: 1.2; stroke-linejoin: miter; stroke-linecap: square"/>
   </g>
   <g id="legend_1">
    <g id="patch_5">
     <path d="M 83.965312 170.2525 
L 183.925156 170.2525 
Q 186.525156 170.2525 186.525156 167.6525 
L 186.525156 16.3 
Q 186.525156 13.7 183.925156 13.7 
L 83.965312 13.7 
Q 81.365313 13.7 81.365313 16.3 
L 81.365313 167.6525 
Q 81.365313 170.2525 83.965312 170.2525 
z
" style="fill: #ededed; opacity: 0.8; stroke: #333333; stroke-width: 0.25; stroke-linejoin: miter"/>
    </g>
    <g id="line2d_31">
     <path d="M 86.565313 24.227969 
L 99.565313 24.227969 
L 112.565313 24.227969 
" style="fill: none; stroke: #8170d4; stroke-width: 2.5; stroke-linecap: square"/>
    </g>
    <g id="text_14">
     <!-- 298K -->
     <g style="fill: #333333" transform="translate(122.965313 28.777969) scale(0.13 -0.13)">
      <defs>
       <path id="DejaVuSans-39" d="M 703 97 
L 703 672 
Q 941 559 1184 500 
Q 1428 441 1663 441 
Q 2288 441 2617 861 
Q 2947 1281 2994 2138 
Q 2813 1869 2534 1725 
Q 2256 1581 1919 1581 
Q 1219 1581 811 2004 
Q 403 2428 403 3163 
Q 403 3881 828 4315 
Q 1253 4750 1959 4750 
Q 2769 4750 3195 4129 
Q 3622 3509 3622 2328 
Q 3622 1225 3098 567 
Q 2575 -91 1691 -91 
Q 1453 -91 1209 -44 
Q 966 3 703 97 
z
M 1959 2075 
Q 2384 2075 2632 2365 
Q 2881 2656 2881 3163 
Q 2881 3666 2632 3958 
Q 2384 4250 1959 4250 
Q 1534 4250 1286 3958 
Q 1038 3666 1038 3163 
Q 1038 2656 1286 2365 
Q 1534 2075 1959 2075 
z
" transform="scale(0.015625)"/>
       <path id="DejaVuSans-4b" d="M 628 4666 
L 1259 4666 
L 1259 2694 
L 3353 4666 
L 4166 4666 
L 1850 2491 
L 4331 0 
L 3500 0 
L 1259 2247 
L 1259 0 
L 628 0 
L 628 4666 
z
" transform="scale(0.015625)"/>
      </defs>
      <use xlink:href="#DejaVuSans-32"/>
      <use xlink:href="#DejaVuSans-39" x="63.623047"/>
      <use xlink:href="#DejaVuSans-38" x="127.246094"/>
      <use xlink:href="#DejaVuSans-4b" x="190.869141"/>
     </g>
    </g>
    <g id="line2d_32">
     <path d="M 86.565313 43.309531 
L 99.565313 43.309531 
L 112.565313 43.309531 
" style="fill: none; stroke: #f26b38; stroke-width: 2.5; stroke-linecap: square"/>
    </g>
    <g id="text_15">
     <!-- 298K, BP -->
     <g style="fill: #333333" transform="translate(122.965313 47.859531) scale(0.13 -0.13)">
      <defs>
       <path id="DejaVuSans-2c" d="M 750 794 
L 1409 794 
L 1409 256 
L 897 -744 
L 494 -744 
L 750 256 
L 750 794 
z
" transform="scale(0.015625)"/>
       <path id="DejaVuSans-42" d="M 1259 2228 
L 1259 519 
L 2272 519 
Q 2781 519 3026 730 
Q 3272 941 3272 1375 
Q 3272 1813 3026 2020 
Q 2781 2228 2272 2228 
L 1259 2228 
z
M 1259 4147 
L 1259 2741 
L 2194 2741 
Q 2656 2741 2882 2914 
Q 3109 3088 3109 3444 
Q 3109 3797 2882 3972 
Q 2656 4147 2194 4147 
L 1259 4147 
z
M 628 4666 
L 2241 4666 
Q 2963 4666 3353 4366 
Q 3744 4066 3744 3513 
Q 3744 3084 3544 2831 
Q 3344 2578 2956 2516 
Q 3422 2416 3680 2098 
Q 3938 1781 3938 1306 
Q 3938 681 3513 340 
Q 3088 0 2303 0 
L 628 0 
L 628 4666 
z
" transform="scale(0.015625)"/>
       <path id="DejaVuSans-50" d="M 1259 4147 
L 1259 2394 
L 2053 2394 
Q 2494 2394 2734 2622 
Q 2975 2850 2975 3272 
Q 2975 3691 2734 3919 
Q 2494 4147 2053 4147 
L 1259 4147 
z
M 628 4666 
L 2053 4666 
Q 2838 4666 3239 4311 
Q 3641 3956 3641 3272 
Q 3641 2581 3239 2228 
Q 2838 1875 2053 1875 
L 1259 1875 
L 1259 0 
L 628 0 
L 628 4666 
z
" transform="scale(0.015625)"/>
      </defs>
      <use xlink:href="#DejaVuSans-32"/>
      <use xlink:href="#DejaVuSans-39" x="63.623047"/>
      <use xlink:href="#DejaVuSans-38" x="127.246094"/>
      <use xlink:href="#DejaVuSans-4b" x="190.869141"/>
      <use xlink:href="#DejaVuSans-2c" x="256.445312"/>
      <use xlink:href="#DejaVuSans-20" x="288.232422"/>
      <use xlink:href="#DejaVuSans-42" x="320.019531"/>
      <use xlink:href="#DejaVuSans-50" x="388.623047"/>
     </g>
    </g>
    <g id="line2d_33">
     <path d="M 86.565313 62.391094 
L 99.565313 62.391094 
L 112.565313 62.391094 
" style="fill: none; stroke: #6ba8c7; stroke-width: 2.5; stroke-linecap: square"/>
    </g>
    <g id="text_16">
     <!-- 290K -->
     <g style="fill: #333333" transform="translate(122.965313 66.941094) scale(0.13 -0.13)">
      <use xlink:href="#DejaVuSans-32"/>
      <use xlink:href="#DejaVuSans-39" x="63.623047"/>
      <use xlink:href="#DejaVuSans-30" x="127.246094"/>
      <use xlink:href="#DejaVuSans-4b" x="190.869141"/>
     </g>
    </g>
    <g id="line2d_34">
     <path d="M 86.565313 81.472656 
L 99.565313 81.472656 
L 112.565313 81.472656 
" style="fill: none; stroke: #a7226e; stroke-width: 2.5; stroke-linecap: square"/>
    </g>
    <g id="text_17">
     <!-- 290K, BP -->
     <g style="fill: #333333" transform="translate(122.965313 86.022656) scale(0.13 -0.13)">
      <use xlink:href="#DejaVuSans-32"/>
      <use xlink:href="#DejaVuSans-39" x="63.623047"/>
      <use xlink:href="#DejaVuSans-30" x="127.246094"/>
      <use xlink:href="#DejaVuSans-4b" x="190.869141"/>
      <use xlink:href="#DejaVuSans-2c" x="256.445312"/>
      <use xlink:href="#DejaVuSans-20" x="288.232422"/>
      <use xlink:href="#DejaVuSans-42" x="320.019531"/>
      <use xlink:href="#DejaVuSans-50" x="388.623047"/>
     </g>
    </g>
    <g id="line2d_35">
     <path d="M 86.565313 100.554219 
L 99.565313 100.554219 
L 112.565313 100.554219 
" style="fill: none; stroke: #7090d4; stroke-width: 2.5; stroke-linecap: square"/>
    </g>
    <g id="text_18">
     <!-- 280K -->
     <g style="fill: #333333" transform="translate(122.965313 105.104219) scale(0.13 -0.13)">
      <use xlink:href="#DejaVuSans-32"/>
      <use xlink:href="#DejaVuSans-38" x="63.623047"/>
      <use xlink:href="#DejaVuSans-30" x="127.246094"/>
      <use xlink:href="#DejaVuSans-4b" x="190.869141"/>
     </g>
    </g>
    <g id="line2d_36">
     <path d="M 86.565313 119.635781 
L 99.565313 119.635781 
L 112.565313 119.635781 
" style="fill: none; stroke: #ec2049; stroke-width: 2.5; stroke-linecap: square"/>
    </g>
    <g id="text_19">
     <!-- 280K, BP -->
     <g style="fill: #333333" transform="translate(122.965313 124.185781) scale(0.13 -0.13)">
      <use xlink:href="#DejaVuSans-32"/>
      <use xlink:href="#DejaVuSans-38" x="63.623047"/>
      <use xlink:href="#DejaVuSans-30" x="127.246094"/>
      <use xlink:href="#DejaVuSans-4b" x="190.869141"/>
      <use xlink:href="#DejaVuSans-2c" x="256.445312"/>
      <use xlink:href="#DejaVuSans-20" x="288.232422"/>
      <use xlink:href="#DejaVuSans-42" x="320.019531"/>
      <use xlink:href="#DejaVuSans-50" x="388.623047"/>
     </g>
    </g>
    <g id="line2d_37">
     <path d="M 86.565313 138.717344 
L 99.565313 138.717344 
L 112.565313 138.717344 
" style="fill: none; stroke: #000000; stroke-width: 2.5; stroke-linecap: square"/>
    </g>
    <g id="text_20">
     <!-- 271K -->
     <g style="fill: #333333" transform="translate(122.965313 143.267344) scale(0.13 -0.13)">
      <defs>
       <path id="DejaVuSans-37" d="M 525 4666 
L 3525 4666 
L 3525 4397 
L 1831 0 
L 1172 0 
L 2766 4134 
L 525 4134 
L 525 4666 
z
" transform="scale(0.015625)"/>
      </defs>
      <use xlink:href="#DejaVuSans-32"/>
      <use xlink:href="#DejaVuSans-37" x="63.623047"/>
      <use xlink:href="#DejaVuSans-31" x="127.246094"/>
      <use xlink:href="#DejaVuSans-4b" x="190.869141"/>
     </g>
    </g>
    <g id="line2d_38">
     <path d="M 86.565313 157.798906 
L 99.565313 157.798906 
L 112.565313 157.798906 
" style="fill: none; stroke: #000000; stroke-width: 2.5; stroke-linecap: square"/>
    </g>
    <g id="text_21">
     <!-- 271K, BP -->
     <g style="fill: #333333" transform="translate(122.965313 162.348906) scale(0.13 -0.13)">
      <use xlink:href="#DejaVuSans-32"/>
      <use xlink:href="#DejaVuSans-37" x="63.623047"/>
      <use xlink:href="#DejaVuSans-31" x="127.246094"/>
      <use xlink:href="#DejaVuSans-4b" x="190.869141"/>
      <use xlink:href="#DejaVuSans-2c" x="256.445312"/>
      <use xlink:href="#DejaVuSans-20" x="288.232422"/>
      <use xlink:href="#DejaVuSans-42" x="320.019531"/>
      <use xlink:href="#DejaVuSans-50" x="388.623047"/>
     </g>
    </g>
   </g>
  </g>
 </g>
 <defs>
  <clipPath id="p7e25bb3a4c">
   <rect x="74.865313" y="7.2" width="708.48" height="227.52"/>
  </clipPath>
 </defs>
</svg>
